<mxfile host="app.diagrams.net" agent="Mozilla/5.0 (Windows NT 10.0; Win64; x64) AppleWebKit/537.36 (KHTML, like Gecko) Chrome/130.0.0.0 Safari/537.36" version="24.8.3">
  <diagram name="Trang-1" id="IcKZQKhQhFWVfhn6wvlv">
    <mxGraphModel grid="1" page="1" gridSize="10" guides="1" tooltips="1" connect="1" arrows="1" fold="1" pageScale="1" pageWidth="827" pageHeight="583" math="0" shadow="0">
      <root>
        <mxCell id="0" />
        <mxCell id="1" parent="0" />
        <mxCell id="jHstU5ATUw5mQnrNWCoj-140" value="" style="rounded=0;whiteSpace=wrap;html=1;" vertex="1" parent="1">
          <mxGeometry x="159" y="590" width="1161" height="300" as="geometry" />
        </mxCell>
        <mxCell id="yWSwCTXY2zXbMs_qn1Oq-1" value="" style="ellipse;whiteSpace=wrap;html=1;fillColor=#FFFFFF;" vertex="1" parent="1">
          <mxGeometry x="210" y="370" width="20" height="20" as="geometry" />
        </mxCell>
        <mxCell id="yWSwCTXY2zXbMs_qn1Oq-2" value="" style="endArrow=none;html=1;rounded=0;exitX=0.5;exitY=1;exitDx=0;exitDy=0;" edge="1" parent="1" source="yWSwCTXY2zXbMs_qn1Oq-1">
          <mxGeometry width="50" height="50" relative="1" as="geometry">
            <mxPoint x="380" y="430" as="sourcePoint" />
            <mxPoint x="220" y="420" as="targetPoint" />
            <Array as="points">
              <mxPoint x="220" y="420" />
            </Array>
          </mxGeometry>
        </mxCell>
        <mxCell id="yWSwCTXY2zXbMs_qn1Oq-3" value="" style="endArrow=none;html=1;rounded=0;" edge="1" parent="1">
          <mxGeometry width="50" height="50" relative="1" as="geometry">
            <mxPoint x="200" y="450" as="sourcePoint" />
            <mxPoint x="220" y="420" as="targetPoint" />
          </mxGeometry>
        </mxCell>
        <mxCell id="yWSwCTXY2zXbMs_qn1Oq-5" value="" style="endArrow=none;html=1;rounded=0;" edge="1" parent="1">
          <mxGeometry width="50" height="50" relative="1" as="geometry">
            <mxPoint x="220" y="420" as="sourcePoint" />
            <mxPoint x="240" y="450" as="targetPoint" />
          </mxGeometry>
        </mxCell>
        <mxCell id="yWSwCTXY2zXbMs_qn1Oq-6" value="" style="endArrow=none;html=1;rounded=0;" edge="1" parent="1">
          <mxGeometry width="50" height="50" relative="1" as="geometry">
            <mxPoint x="200" y="400" as="sourcePoint" />
            <mxPoint x="240" y="400" as="targetPoint" />
          </mxGeometry>
        </mxCell>
        <mxCell id="yWSwCTXY2zXbMs_qn1Oq-7" value="SPSO" style="text;html=1;align=center;verticalAlign=middle;whiteSpace=wrap;rounded=0;" vertex="1" parent="1">
          <mxGeometry x="190" y="340" width="60" height="30" as="geometry" />
        </mxCell>
        <mxCell id="yWSwCTXY2zXbMs_qn1Oq-8" value="&lt;font style=&quot;font-size: 16px;&quot;&gt;:PrinterService.View&lt;/font&gt;" style="rounded=0;whiteSpace=wrap;html=1;fillColor=#FFFFFF;" vertex="1" parent="1">
          <mxGeometry x="490" y="370" width="160" height="60" as="geometry" />
        </mxCell>
        <mxCell id="yWSwCTXY2zXbMs_qn1Oq-9" value="&lt;font style=&quot;font-size: 16px;&quot;&gt;:PrinterService.Controller&lt;/font&gt;" style="rounded=0;whiteSpace=wrap;html=1;fillColor=#FFFFFF;" vertex="1" parent="1">
          <mxGeometry x="760" y="370" width="200" height="60" as="geometry" />
        </mxCell>
        <mxCell id="yWSwCTXY2zXbMs_qn1Oq-10" value="&lt;font style=&quot;font-size: 16px;&quot;&gt;:PrinterService.Model&lt;/font&gt;" style="rounded=0;whiteSpace=wrap;html=1;fillColor=#FFFFFF;" vertex="1" parent="1">
          <mxGeometry x="1060" y="370" width="170" height="60" as="geometry" />
        </mxCell>
        <mxCell id="yWSwCTXY2zXbMs_qn1Oq-14" value="" style="endArrow=none;dashed=1;html=1;dashPattern=1 3;strokeWidth=2;rounded=0;exitX=0.5;exitY=0;exitDx=0;exitDy=0;" edge="1" parent="1">
          <mxGeometry width="50" height="50" relative="1" as="geometry">
            <mxPoint x="220.00000000000023" y="470" as="sourcePoint" />
            <mxPoint x="220" y="430" as="targetPoint" />
          </mxGeometry>
        </mxCell>
        <mxCell id="yWSwCTXY2zXbMs_qn1Oq-15" value="" style="endArrow=none;dashed=1;html=1;dashPattern=1 3;strokeWidth=2;rounded=0;exitX=0.5;exitY=0;exitDx=0;exitDy=0;" edge="1" parent="1">
          <mxGeometry width="50" height="50" relative="1" as="geometry">
            <mxPoint x="569.6700000000001" y="470" as="sourcePoint" />
            <mxPoint x="569.6700000000001" y="430" as="targetPoint" />
          </mxGeometry>
        </mxCell>
        <mxCell id="yWSwCTXY2zXbMs_qn1Oq-27" value="" style="rounded=0;whiteSpace=wrap;html=1;" vertex="1" parent="1">
          <mxGeometry x="215" y="470" width="10" height="610" as="geometry" />
        </mxCell>
        <mxCell id="yWSwCTXY2zXbMs_qn1Oq-46" value="" style="endArrow=none;dashed=1;html=1;dashPattern=1 3;strokeWidth=2;rounded=0;" edge="1" parent="1">
          <mxGeometry width="50" height="50" relative="1" as="geometry">
            <mxPoint x="860" y="1080" as="sourcePoint" />
            <mxPoint x="859.5800000000002" y="430" as="targetPoint" />
          </mxGeometry>
        </mxCell>
        <mxCell id="yWSwCTXY2zXbMs_qn1Oq-52" value="" style="endArrow=none;dashed=1;html=1;dashPattern=1 3;strokeWidth=2;rounded=0;" edge="1" parent="1">
          <mxGeometry width="50" height="50" relative="1" as="geometry">
            <mxPoint x="1145" y="1080" as="sourcePoint" />
            <mxPoint x="1144.6000000000001" y="433" as="targetPoint" />
          </mxGeometry>
        </mxCell>
        <mxCell id="jHstU5ATUw5mQnrNWCoj-44" value=":Printer&lt;div&gt;Configuration&lt;/div&gt;" style="rounded=0;whiteSpace=wrap;html=1;fillColor=#FFFFFF;fontSize=14;" vertex="1" parent="1">
          <mxGeometry x="675" y="615" width="90" height="60" as="geometry" />
        </mxCell>
        <mxCell id="jHstU5ATUw5mQnrNWCoj-46" value="&amp;lt;&amp;lt;Create&amp;gt;&amp;gt;" style="text;html=1;align=center;verticalAlign=middle;whiteSpace=wrap;rounded=0;" vertex="1" parent="1">
          <mxGeometry x="590" y="615" width="70" height="30" as="geometry" />
        </mxCell>
        <mxCell id="jHstU5ATUw5mQnrNWCoj-47" value="" style="endArrow=classic;html=1;rounded=0;entryX=-0.058;entryY=0.106;entryDx=0;entryDy=0;entryPerimeter=0;exitX=0.997;exitY=0.462;exitDx=0;exitDy=0;exitPerimeter=0;" edge="1" parent="1">
          <mxGeometry width="50" height="50" relative="1" as="geometry">
            <mxPoint x="765.31" y="665.3000000000002" as="sourcePoint" />
            <mxPoint x="855" y="665" as="targetPoint" />
          </mxGeometry>
        </mxCell>
        <mxCell id="jHstU5ATUw5mQnrNWCoj-48" value="AddPrinterAPI&lt;div&gt;(printer_data)&lt;/div&gt;" style="text;html=1;align=center;verticalAlign=middle;whiteSpace=wrap;rounded=0;" vertex="1" parent="1">
          <mxGeometry x="770" y="610" width="80" height="50" as="geometry" />
        </mxCell>
        <mxCell id="jHstU5ATUw5mQnrNWCoj-50" value="" style="endArrow=open;html=1;rounded=0;exitX=0.971;exitY=0.129;exitDx=0;exitDy=0;exitPerimeter=0;entryX=-0.006;entryY=0.519;entryDx=0;entryDy=0;entryPerimeter=0;dashed=1;endFill=0;" edge="1" parent="1">
          <mxGeometry width="50" height="50" relative="1" as="geometry">
            <mxPoint x="575" y="643.8899999999999" as="sourcePoint" />
            <mxPoint x="674" y="643.8899999999999" as="targetPoint" />
          </mxGeometry>
        </mxCell>
        <mxCell id="jHstU5ATUw5mQnrNWCoj-51" value="" style="rounded=0;whiteSpace=wrap;html=1;" vertex="1" parent="1">
          <mxGeometry x="855" y="655" width="10" height="70" as="geometry" />
        </mxCell>
        <mxCell id="jHstU5ATUw5mQnrNWCoj-55" value="Add_New_Printer(printer_data)" style="text;html=1;align=center;verticalAlign=middle;whiteSpace=wrap;rounded=0;fontSize=14;" vertex="1" parent="1">
          <mxGeometry x="900.0000000000001" y="645" width="230" height="30" as="geometry" />
        </mxCell>
        <mxCell id="jHstU5ATUw5mQnrNWCoj-56" value="" style="endArrow=classic;html=1;rounded=0;exitX=0.955;exitY=0.208;exitDx=0;exitDy=0;exitPerimeter=0;entryX=0.027;entryY=0.096;entryDx=0;entryDy=0;entryPerimeter=0;endFill=1;" edge="1" parent="1">
          <mxGeometry width="50" height="50" relative="1" as="geometry">
            <mxPoint x="865" y="675" as="sourcePoint" />
            <mxPoint x="1140" y="675" as="targetPoint" />
            <Array as="points">
              <mxPoint x="970" y="675" />
            </Array>
          </mxGeometry>
        </mxCell>
        <mxCell id="jHstU5ATUw5mQnrNWCoj-59" value="&lt;font style=&quot;font-size: 14px;&quot;&gt;return add_status&lt;/font&gt;" style="text;html=1;align=center;verticalAlign=middle;whiteSpace=wrap;rounded=0;direction=south;fontSize=14;" vertex="1" parent="1">
          <mxGeometry x="872.56" y="715" width="255.12" height="20" as="geometry" />
        </mxCell>
        <mxCell id="jHstU5ATUw5mQnrNWCoj-60" value="" style="endArrow=open;html=1;rounded=0;exitX=0.955;exitY=0.208;exitDx=0;exitDy=0;exitPerimeter=0;entryX=0.027;entryY=0.096;entryDx=0;entryDy=0;entryPerimeter=0;endFill=0;dashed=1;" edge="1" parent="1">
          <mxGeometry width="50" height="50" relative="1" as="geometry">
            <mxPoint x="1140" y="705" as="sourcePoint" />
            <mxPoint x="865" y="705" as="targetPoint" />
            <Array as="points">
              <mxPoint x="970" y="705" />
            </Array>
          </mxGeometry>
        </mxCell>
        <mxCell id="jHstU5ATUw5mQnrNWCoj-63" value="" style="endArrow=open;html=1;rounded=0;exitX=0.99;exitY=0.271;exitDx=0;exitDy=0;exitPerimeter=0;entryX=-0.009;entryY=0.069;entryDx=0;entryDy=0;entryPerimeter=0;dashed=1;endFill=0;" edge="1" parent="1">
          <mxGeometry width="50" height="50" relative="1" as="geometry">
            <mxPoint x="855" y="715" as="sourcePoint" />
            <mxPoint x="575" y="716" as="targetPoint" />
            <Array as="points">
              <mxPoint x="680" y="716" />
            </Array>
          </mxGeometry>
        </mxCell>
        <mxCell id="jHstU5ATUw5mQnrNWCoj-64" value="return add_status" style="text;html=1;align=center;verticalAlign=middle;whiteSpace=wrap;rounded=0;fontSize=14;" vertex="1" parent="1">
          <mxGeometry x="619.76" y="715" width="200.24" height="30" as="geometry" />
        </mxCell>
        <mxCell id="jHstU5ATUw5mQnrNWCoj-67" value="" style="endArrow=open;dashed=1;html=1;strokeWidth=1;rounded=0;endFill=0;entryX=0.86;entryY=0.039;entryDx=0;entryDy=0;entryPerimeter=0;exitX=-0.025;exitY=0.039;exitDx=0;exitDy=0;exitPerimeter=0;" edge="1" parent="1">
          <mxGeometry width="50" height="50" relative="1" as="geometry">
            <mxPoint x="566.15" y="1070" as="sourcePoint" />
            <mxPoint x="224.9999999999999" y="1070" as="targetPoint" />
          </mxGeometry>
        </mxCell>
        <mxCell id="jHstU5ATUw5mQnrNWCoj-68" value="Display &quot;printer management interface&quot;" style="text;html=1;align=center;verticalAlign=middle;whiteSpace=wrap;rounded=0;fontSize=14;" vertex="1" parent="1">
          <mxGeometry x="265" y="1040" width="260.02" height="30" as="geometry" />
        </mxCell>
        <mxCell id="jHstU5ATUw5mQnrNWCoj-135" value="" style="endArrow=classic;html=1;rounded=0;exitX=1.024;exitY=0.012;exitDx=0;exitDy=0;exitPerimeter=0;entryX=-0.069;entryY=0.011;entryDx=0;entryDy=0;entryPerimeter=0;" edge="1" parent="1">
          <mxGeometry width="50" height="50" relative="1" as="geometry">
            <mxPoint x="226" y="541" as="sourcePoint" />
            <mxPoint x="565" y="540" as="targetPoint" />
          </mxGeometry>
        </mxCell>
        <mxCell id="jHstU5ATUw5mQnrNWCoj-141" value="" style="endArrow=none;dashed=1;html=1;dashPattern=1 3;strokeWidth=2;rounded=0;exitX=0;exitY=0.75;exitDx=0;exitDy=0;" edge="1" parent="1">
          <mxGeometry width="50" height="50" relative="1" as="geometry">
            <mxPoint x="160" y="750" as="sourcePoint" />
            <mxPoint x="1320" y="750" as="targetPoint" />
          </mxGeometry>
        </mxCell>
        <mxCell id="jHstU5ATUw5mQnrNWCoj-146" value="" style="shape=card;whiteSpace=wrap;html=1;rotation=90;direction=west;flipH=0;flipV=1;size=15;" vertex="1" parent="1">
          <mxGeometry x="173.75" y="577" width="30" height="57.5" as="geometry" />
        </mxCell>
        <mxCell id="jHstU5ATUw5mQnrNWCoj-147" value="" style="endArrow=classic;html=1;rounded=0;exitX=1.024;exitY=0.012;exitDx=0;exitDy=0;exitPerimeter=0;entryX=-0.069;entryY=0.011;entryDx=0;entryDy=0;entryPerimeter=0;" edge="1" parent="1">
          <mxGeometry width="50" height="50" relative="1" as="geometry">
            <mxPoint x="226" y="806" as="sourcePoint" />
            <mxPoint x="565" y="805" as="targetPoint" />
          </mxGeometry>
        </mxCell>
        <mxCell id="jHstU5ATUw5mQnrNWCoj-148" value="CancelAddPrinter()" style="text;html=1;align=center;verticalAlign=middle;whiteSpace=wrap;rounded=0;fontSize=14;" vertex="1" parent="1">
          <mxGeometry x="295" y="775" width="190" height="30" as="geometry" />
        </mxCell>
        <mxCell id="jHstU5ATUw5mQnrNWCoj-149" value="[Addition cancelled]" style="text;html=1;align=center;verticalAlign=middle;whiteSpace=wrap;rounded=0;fontSize=14;" vertex="1" parent="1">
          <mxGeometry x="210" y="745" width="167.5" height="30" as="geometry" />
        </mxCell>
        <mxCell id="BhT5talH1GZ97aBPdqVb-2" value="" style="endArrow=none;dashed=1;html=1;dashPattern=1 3;strokeWidth=2;rounded=0;entryX=0.5;entryY=1;entryDx=0;entryDy=0;" edge="1" parent="1" target="jHstU5ATUw5mQnrNWCoj-44" source="jHstU5ATUw5mQnrNWCoj-52">
          <mxGeometry width="50" height="50" relative="1" as="geometry">
            <mxPoint x="720" y="1080" as="sourcePoint" />
            <mxPoint x="770" y="830" as="targetPoint" />
          </mxGeometry>
        </mxCell>
        <mxCell id="yWSwCTXY2zXbMs_qn1Oq-28" value="" style="rounded=0;whiteSpace=wrap;html=1;" vertex="1" parent="1">
          <mxGeometry x="565" y="470" width="10" height="610" as="geometry" />
        </mxCell>
        <mxCell id="Dijh3Lziuk4xu96Kbbke-1" value="&lt;font style=&quot;font-size: 14px;&quot;&gt;Addnewprinter&amp;nbsp;&lt;span style=&quot;background-color: initial;&quot;&gt;()&lt;/span&gt;&lt;/font&gt;" style="text;html=1;align=center;verticalAlign=middle;whiteSpace=wrap;rounded=0;" vertex="1" parent="1">
          <mxGeometry x="280" y="490" width="220" height="50" as="geometry" />
        </mxCell>
        <mxCell id="Dijh3Lziuk4xu96Kbbke-4" value="" style="rounded=0;whiteSpace=wrap;html=1;fillColor=#FFFFFF;" vertex="1" parent="1">
          <mxGeometry x="570" y="982" width="10" height="20" as="geometry" />
        </mxCell>
        <mxCell id="Dijh3Lziuk4xu96Kbbke-5" value="Display_Printer_ management_ interface()" style="text;html=1;align=center;verticalAlign=middle;whiteSpace=wrap;rounded=0;fontSize=14;" vertex="1" parent="1">
          <mxGeometry x="600" y="960" width="180" height="30" as="geometry" />
        </mxCell>
        <mxCell id="Dijh3Lziuk4xu96Kbbke-6" value="" style="endArrow=classic;html=1;rounded=0;endFill=1;exitX=0.952;exitY=0.019;exitDx=0;exitDy=0;exitPerimeter=0;" edge="1" parent="1">
          <mxGeometry width="50" height="50" relative="1" as="geometry">
            <mxPoint x="575" y="958" as="sourcePoint" />
            <mxPoint x="580" y="992" as="targetPoint" />
            <Array as="points">
              <mxPoint x="610" y="958" />
              <mxPoint x="610" y="992" />
            </Array>
          </mxGeometry>
        </mxCell>
        <mxCell id="xw0TwqaNQeHHF2rlYk55-4" value="" style="endArrow=none;dashed=1;html=1;dashPattern=1 3;strokeWidth=2;rounded=0;entryX=0.5;entryY=1;entryDx=0;entryDy=0;" edge="1" parent="1" target="jHstU5ATUw5mQnrNWCoj-52">
          <mxGeometry width="50" height="50" relative="1" as="geometry">
            <mxPoint x="720" y="1080" as="sourcePoint" />
            <mxPoint x="720" y="675" as="targetPoint" />
          </mxGeometry>
        </mxCell>
        <mxCell id="jHstU5ATUw5mQnrNWCoj-52" value="" style="rounded=0;whiteSpace=wrap;html=1;" vertex="1" parent="1">
          <mxGeometry x="714.88" y="820" width="10" height="40" as="geometry" />
        </mxCell>
        <mxCell id="xw0TwqaNQeHHF2rlYk55-5" value="" style="rounded=0;whiteSpace=wrap;html=1;" vertex="1" parent="1">
          <mxGeometry x="215" y="590" width="10" height="300" as="geometry" />
        </mxCell>
        <mxCell id="jHstU5ATUw5mQnrNWCoj-145" value="Alt" style="text;html=1;align=center;verticalAlign=middle;whiteSpace=wrap;rounded=0;" vertex="1" parent="1">
          <mxGeometry x="158" y="590.75" width="55" height="30" as="geometry" />
        </mxCell>
        <mxCell id="xw0TwqaNQeHHF2rlYk55-6" value="" style="endArrow=open;html=1;rounded=0;exitX=0;exitY=0.5;exitDx=0;exitDy=0;entryX=-0.009;entryY=0.069;entryDx=0;entryDy=0;entryPerimeter=0;dashed=1;endFill=0;" edge="1" parent="1">
          <mxGeometry width="50" height="50" relative="1" as="geometry">
            <mxPoint x="714.8800000000001" y="850" as="sourcePoint" />
            <mxPoint x="575" y="850.5" as="targetPoint" />
            <Array as="points">
              <mxPoint x="680" y="850.5" />
            </Array>
          </mxGeometry>
        </mxCell>
        <mxCell id="xw0TwqaNQeHHF2rlYk55-7" value="return cancel_status" style="text;html=1;align=center;verticalAlign=middle;whiteSpace=wrap;rounded=0;fontSize=14;" vertex="1" parent="1">
          <mxGeometry x="544.88" y="850" width="200.24" height="30" as="geometry" />
        </mxCell>
        <mxCell id="xw0TwqaNQeHHF2rlYk55-10" value="" style="endArrow=classic;html=1;rounded=0;exitX=0;exitY=0.5;exitDx=0;exitDy=0;entryX=-0.009;entryY=0.069;entryDx=0;entryDy=0;entryPerimeter=0;endFill=1;" edge="1" parent="1">
          <mxGeometry width="50" height="50" relative="1" as="geometry">
            <mxPoint x="575" y="830.5" as="sourcePoint" />
            <mxPoint x="714.8800000000001" y="830" as="targetPoint" />
            <Array as="points">
              <mxPoint x="680" y="830.5" />
            </Array>
          </mxGeometry>
        </mxCell>
        <mxCell id="xw0TwqaNQeHHF2rlYk55-12" value="&lt;font style=&quot;font-size: 13px;&quot;&gt;CancelAddPrinter&lt;/font&gt;()" style="text;html=1;align=center;verticalAlign=middle;whiteSpace=wrap;rounded=0;fontSize=14;" vertex="1" parent="1">
          <mxGeometry x="550" y="802.5" width="190" height="30" as="geometry" />
        </mxCell>
        <mxCell id="xw0TwqaNQeHHF2rlYk55-15" value="" style="rounded=0;whiteSpace=wrap;html=1;" vertex="1" parent="1">
          <mxGeometry x="1140" y="655" width="10" height="65" as="geometry" />
        </mxCell>
      </root>
    </mxGraphModel>
  </diagram>
</mxfile>
